<?xml version="1.0" standalone="no"?>
<!DOCTYPE svg PUBLIC "-//W3C//DTD SVG 20010904//EN"
 "http://www.w3.org/TR/2001/REC-SVG-20010904/DTD/svg10.dtd">
<svg version="1.0" xmlns="http://www.w3.org/2000/svg"
 width="1280.000000pt" height="1280.000000pt" viewBox="0 0 1280.000000 1280.000000"
 preserveAspectRatio="xMidYMid meet">
<metadata>
Created by potrace 1.11, written by Peter Selinger 2001-2013
</metadata>
<g transform="translate(0.000000,1280.000000) scale(0.100000,-0.100000)"
fill="#000000" stroke="none">
<path d="M6088 12795 c-2 -1 -49 -5 -106 -9 -111 -7 -276 -22 -332 -30 -19 -3
-57 -8 -85 -11 -42 -4 -229 -34 -325 -51 -220 -39 -482 -102 -700 -169 -47
-15 -107 -33 -135 -42 -111 -34 -417 -151 -565 -216 -531 -233 -1020 -532
-1470 -896 -263 -212 -498 -437 -764 -731 -149 -163 -381 -467 -533 -695 -91
-136 -253 -399 -253 -411 0 -2 -11 -22 -25 -44 -60 -96 -226 -440 -317 -660
-135 -326 -277 -788 -342 -1115 -9 -44 -19 -91 -21 -105 -10 -48 -34 -185 -40
-230 -3 -25 -8 -56 -10 -70 -7 -47 -26 -195 -31 -250 -2 -30 -6 -71 -9 -90
-27 -233 -27 -910 0 -1125 2 -16 7 -64 10 -105 11 -124 15 -161 35 -285 5 -33
12 -78 15 -100 7 -45 20 -118 40 -215 8 -36 17 -81 20 -100 8 -47 71 -298 96
-385 95 -327 208 -632 339 -920 52 -114 191 -388 211 -417 11 -14 19 -29 19
-32 0 -3 20 -40 45 -82 25 -41 45 -77 45 -80 0 -5 75 -122 179 -279 75 -113
322 -451 340 -465 4 -3 29 -32 55 -65 170 -211 493 -542 711 -730 44 -38 82
-71 85 -74 3 -3 39 -33 80 -66 41 -33 77 -62 80 -66 3 -3 66 -50 140 -106 197
-146 309 -221 590 -393 341 -209 896 -455 1315 -584 66 -21 131 -41 145 -46
14 -5 43 -14 65 -19 22 -5 94 -23 160 -39 150 -38 287 -67 434 -92 62 -11 121
-22 130 -24 9 -3 41 -8 71 -11 30 -3 66 -7 80 -9 36 -6 117 -16 270 -31 204
-20 788 -27 985 -12 178 14 422 39 495 51 14 3 43 7 65 10 22 3 114 19 205 36
518 97 988 246 1490 472 38 17 128 62 335 166 17 9 80 43 140 78 1200 678
2158 1735 2713 2994 146 332 285 739 357 1050 48 203 59 255 79 370 17 96 47
283 51 325 3 28 8 66 11 85 7 49 22 210 31 332 15 207 8 825 -12 983 -2 17 -7
62 -10 100 -4 39 -9 84 -11 100 -2 17 -6 49 -9 72 -5 41 -19 140 -31 213 -5
36 -29 159 -45 240 -5 25 -12 59 -15 75 -8 44 -71 299 -95 380 -95 327 -208
632 -339 920 -52 114 -191 388 -211 417 -11 14 -19 29 -19 32 0 3 -20 40 -45
82 -25 41 -45 77 -45 79 0 6 -105 169 -189 295 -124 186 -313 436 -430 570
-12 14 -46 52 -74 85 -151 173 -441 462 -597 595 -14 12 -37 32 -51 45 -190
168 -553 432 -799 582 -58 35 -112 68 -120 73 -90 55 -323 180 -490 260 -416
202 -1002 399 -1435 484 -44 9 -111 22 -150 30 -62 12 -118 21 -192 31 -13 2
-40 6 -60 9 -52 9 -98 15 -168 21 -33 4 -67 8 -75 10 -8 2 -60 7 -115 11 -55
3 -111 8 -125 11 -28 4 -737 12 -742 8z"/>
</g>
</svg>
